<svg id="visual" viewBox="0 0 900 600" width="900" height="600" xmlns="http://www.w3.org/2000/svg" xmlns:xlink="http://www.w3.org/1999/xlink" version="1.1"><rect x="0" y="0" width="900" height="600" fill="#001220"></rect><defs><linearGradient id="grad1_0" x1="33.3%" y1="0%" x2="100%" y2="100%"><stop offset="20%" stop-color="#8e24aa" stop-opacity="1"></stop><stop offset="80%" stop-color="#8e24aa" stop-opacity="1"></stop></linearGradient></defs><defs><linearGradient id="grad1_1" x1="33.3%" y1="0%" x2="100%" y2="100%"><stop offset="20%" stop-color="#8e24aa" stop-opacity="1"></stop><stop offset="80%" stop-color="#4e3294" stop-opacity="1"></stop></linearGradient></defs><defs><linearGradient id="grad1_2" x1="33.3%" y1="0%" x2="100%" y2="100%"><stop offset="20%" stop-color="#132e72" stop-opacity="1"></stop><stop offset="80%" stop-color="#4e3294" stop-opacity="1"></stop></linearGradient></defs><defs><linearGradient id="grad1_3" x1="33.3%" y1="0%" x2="100%" y2="100%"><stop offset="20%" stop-color="#132e72" stop-opacity="1"></stop><stop offset="80%" stop-color="#002249" stop-opacity="1"></stop></linearGradient></defs><defs><linearGradient id="grad1_4" x1="33.3%" y1="0%" x2="100%" y2="100%"><stop offset="20%" stop-color="#001220" stop-opacity="1"></stop><stop offset="80%" stop-color="#002249" stop-opacity="1"></stop></linearGradient></defs><defs><linearGradient id="grad2_0" x1="0%" y1="0%" x2="66.7%" y2="100%"><stop offset="20%" stop-color="#8e24aa" stop-opacity="1"></stop><stop offset="80%" stop-color="#8e24aa" stop-opacity="1"></stop></linearGradient></defs><defs><linearGradient id="grad2_1" x1="0%" y1="0%" x2="66.7%" y2="100%"><stop offset="20%" stop-color="#4e3294" stop-opacity="1"></stop><stop offset="80%" stop-color="#8e24aa" stop-opacity="1"></stop></linearGradient></defs><defs><linearGradient id="grad2_2" x1="0%" y1="0%" x2="66.7%" y2="100%"><stop offset="20%" stop-color="#4e3294" stop-opacity="1"></stop><stop offset="80%" stop-color="#132e72" stop-opacity="1"></stop></linearGradient></defs><defs><linearGradient id="grad2_3" x1="0%" y1="0%" x2="66.7%" y2="100%"><stop offset="20%" stop-color="#002249" stop-opacity="1"></stop><stop offset="80%" stop-color="#132e72" stop-opacity="1"></stop></linearGradient></defs><defs><linearGradient id="grad2_4" x1="0%" y1="0%" x2="66.7%" y2="100%"><stop offset="20%" stop-color="#002249" stop-opacity="1"></stop><stop offset="80%" stop-color="#001220" stop-opacity="1"></stop></linearGradient></defs><g transform="translate(900, 0)"><path d="M0 378.6C-52.1 375.9 -104.2 373.2 -144.9 349.8C-185.6 326.3 -214.9 282 -244 244C-273 205.9 -301.9 174 -324.3 134.3C-346.7 94.7 -362.6 47.3 -378.6 0L0 0Z" fill="#001b34"></path><path d="M0 302.9C-41.7 300.7 -83.3 298.6 -115.9 279.8C-148.5 261 -171.9 225.6 -195.2 195.2C-218.4 164.7 -241.5 139.2 -259.4 107.5C-277.3 75.8 -290.1 37.9 -302.9 0L0 0Z" fill="#00295e"></path><path d="M0 227.1C-31.3 225.5 -62.5 223.9 -86.9 209.9C-111.3 195.8 -128.9 169.2 -146.4 146.4C-163.8 123.5 -181.1 104.4 -194.6 80.6C-208 56.8 -217.6 28.4 -227.1 0L0 0Z" fill="#303284"></path><path d="M0 151.4C-20.8 150.4 -41.7 149.3 -58 139.9C-74.2 130.5 -86 112.8 -97.6 97.6C-109.2 82.3 -120.8 69.6 -129.7 53.7C-138.7 37.9 -145.1 18.9 -151.4 0L0 0Z" fill="#6d2ea1"></path><path d="M0 75.7C-10.4 75.2 -20.8 74.6 -29 70C-37.1 65.3 -43 56.4 -48.8 48.8C-54.6 41.2 -60.4 34.8 -64.9 26.9C-69.3 18.9 -72.5 9.5 -75.7 0L0 0Z" fill="#8e24aa"></path></g><g transform="translate(0, 600)"><path d="M0 -378.6C53.2 -377.5 106.4 -376.4 144.9 -349.8C183.3 -323.1 207 -270.9 230.5 -230.5C254.1 -190.1 277.5 -161.6 302.1 -125.1C326.8 -88.7 352.7 -44.3 378.6 0L0 0Z" fill="#001b34"></path><path d="M0 -302.9C42.6 -302 85.1 -301.1 115.9 -279.8C146.7 -258.5 165.6 -216.7 184.4 -184.4C203.2 -152.1 222 -129.3 241.7 -100.1C261.4 -71 282.1 -35.5 302.9 0L0 0Z" fill="#00295e"></path><path d="M0 -227.1C31.9 -226.5 63.9 -225.8 86.9 -209.9C110 -193.9 124.2 -162.5 138.3 -138.3C152.4 -114.1 166.5 -97 181.3 -75.1C196.1 -53.2 211.6 -26.6 227.1 0L0 0Z" fill="#303284"></path><path d="M0 -151.4C21.3 -151 42.6 -150.6 58 -139.9C73.3 -129.2 82.8 -108.4 92.2 -92.2C101.6 -76.1 111 -64.6 120.8 -50.1C130.7 -35.5 141.1 -17.7 151.4 0L0 0Z" fill="#6d2ea1"></path><path d="M0 -75.7C10.6 -75.5 21.3 -75.3 29 -70C36.7 -64.6 41.4 -54.2 46.1 -46.1C50.8 -38 55.5 -32.3 60.4 -25C65.4 -17.7 70.5 -8.9 75.7 0L0 0Z" fill="#8e24aa"></path></g></svg>