<svg width="20" height="20" viewBox="0 0 20 20" fill="none" xmlns="http://www.w3.org/2000/svg">
<path d="M15.5626 19.1485C15.4005 19.1485 15.2408 19.1091 15.0973 19.0338L10.0001 16.3541L4.90296 19.0338C4.73778 19.1206 4.55161 19.1595 4.3655 19.146C4.17938 19.1326 4.00074 19.0673 3.84977 18.9576C3.6988 18.848 3.58152 18.6983 3.51119 18.5254C3.44086 18.3526 3.42028 18.1635 3.45178 17.9796L4.42542 12.3038L0.301885 8.2848C0.168302 8.15452 0.0738231 7.98947 0.0291246 7.8083C-0.0155739 7.62714 -0.00870976 7.43708 0.0489412 7.25962C0.106592 7.08215 0.212732 6.92434 0.355365 6.80403C0.497998 6.68373 0.671438 6.60571 0.856085 6.5788L6.55482 5.75067L9.10312 0.587012C9.19523 0.431065 9.3264 0.301825 9.4837 0.212044C9.64099 0.122263 9.81898 0.0750427 10.0001 0.0750427C10.1812 0.0750427 10.3592 0.122263 10.5165 0.212044C10.6738 0.301825 10.805 0.431065 10.8971 0.587012L13.4454 5.75058L19.1441 6.57871C19.3288 6.60562 19.5022 6.68364 19.6449 6.80394C19.7875 6.92425 19.8936 7.08206 19.9513 7.25953C20.0089 7.43699 20.0158 7.62705 19.9711 7.80821C19.9264 7.98938 19.8319 8.15443 19.6983 8.28471L15.5748 12.3037L16.5484 17.9795C16.573 18.123 16.566 18.2702 16.5278 18.4108C16.4896 18.5513 16.4212 18.6818 16.3273 18.7932C16.2334 18.9045 16.1163 18.994 15.9842 19.0554C15.8521 19.1167 15.7082 19.1485 15.5626 19.1485L15.5626 19.1485Z" fill="#FFC700"/>
<path d="M19.9513 7.25936C19.8936 7.08193 19.7875 6.92417 19.6448 6.80389C19.5022 6.68361 19.3288 6.60561 19.1442 6.5787L13.4454 5.75057L10.8971 0.586999C10.8103 0.426466 10.6802 0.293436 10.5217 0.202955C10.3632 0.112474 10.1825 0.0681516 10.0001 0.074999V16.3541L15.0973 19.0338C15.2625 19.1206 15.4486 19.1595 15.6348 19.146C15.8209 19.1326 15.9995 19.0673 16.1505 18.9576C16.3014 18.848 16.4187 18.6982 16.4891 18.5254C16.5594 18.3526 16.58 18.1635 16.5485 17.9796L15.5748 12.3038L19.6984 8.28479C19.832 8.15446 19.9264 7.98937 19.9711 7.80816C20.0158 7.62696 20.009 7.43686 19.9513 7.25936V7.25936Z" fill="#888888"/>
</svg>
