<svg width="20" height="20" viewBox="0 0 20 20" fill="none" xmlns="http://www.w3.org/2000/svg">
<path d="M15.5626 19.2228C15.4005 19.2228 15.2408 19.1834 15.0973 19.1081L10.0001 16.4284L4.90296 19.1081C4.73778 19.1949 4.55161 19.2338 4.3655 19.2203C4.17938 19.2069 4.00074 19.1416 3.84977 19.0319C3.6988 18.9223 3.58152 18.7726 3.51119 18.5997C3.44086 18.4269 3.42028 18.2378 3.45178 18.0539L4.42542 12.3781L0.301885 8.35911C0.168302 8.22883 0.0738231 8.06378 0.0291246 7.88261C-0.0155739 7.70145 -0.00870976 7.51139 0.0489412 7.33393C0.106592 7.15646 0.212732 6.99865 0.355365 6.87834C0.497998 6.75804 0.671438 6.68002 0.856085 6.65311L6.55482 5.82498L9.10312 0.661323C9.19523 0.505375 9.3264 0.376135 9.4837 0.286354C9.64099 0.196573 9.81898 0.149353 10.0001 0.149353C10.1812 0.149353 10.3592 0.196573 10.5165 0.286354C10.6738 0.376135 10.805 0.505375 10.8971 0.661323L13.4454 5.82489L19.1441 6.65302C19.3288 6.67993 19.5022 6.75795 19.6449 6.87825C19.7875 6.99856 19.8936 7.15637 19.9513 7.33384C20.0089 7.5113 20.0158 7.70136 19.9711 7.88252C19.9264 8.06369 19.8319 8.22874 19.6983 8.35902L15.5748 12.378L16.5484 18.0538C16.573 18.1974 16.566 18.3445 16.5278 18.4851C16.4896 18.6256 16.4212 18.7561 16.3273 18.8675C16.2334 18.9788 16.1163 19.0683 15.9842 19.1297C15.8521 19.1911 15.7082 19.2228 15.5626 19.2228L15.5626 19.2228Z" fill="#FFC700"/>
<path d="M19.9513 7.33367C19.8936 7.15624 19.7875 6.99848 19.6448 6.8782C19.5022 6.75792 19.3288 6.67992 19.1442 6.65301L13.4454 5.82488L10.8971 0.661309C10.8103 0.500776 10.6802 0.367747 10.5217 0.277266C10.3632 0.186785 10.1825 0.142462 10.0001 0.149309V16.4284L15.0973 19.1081C15.2625 19.1949 15.4486 19.2338 15.6348 19.2203C15.8209 19.2069 15.9995 19.1416 16.1505 19.0319C16.3014 18.9223 16.4187 18.7725 16.4891 18.5997C16.5594 18.4269 16.58 18.2378 16.5485 18.0539L15.5748 12.3781L19.6984 8.3591C19.832 8.22877 19.9264 8.06368 19.9711 7.88247C20.0158 7.70127 20.009 7.51117 19.9513 7.33367V7.33367Z" fill="#FFC700"/>
</svg>
