<svg width="17" height="24" viewBox="0 0 17 24" fill="none" xmlns="http://www.w3.org/2000/svg">
<path fill-rule="evenodd" clip-rule="evenodd" d="M15.012 23.8395C15.1945 23.9447 15.4014 24.0001 15.612 24C15.9302 23.9998 16.2353 23.8733 16.4603 23.6483C16.6853 23.4233 16.8118 23.1182 16.812 22.8V3.6C16.811 2.64554 16.4314 1.73047 15.7565 1.05557C15.0816 0.380661 14.1665 0.00104183 13.212 0H3.61202C2.65756 0.00104183 1.7425 0.380661 1.06759 1.05557C0.392685 1.73047 0.0130658 2.64554 0.0120239 3.6V22.8C0.0121381 23.0106 0.0676533 23.2175 0.172996 23.3998C0.278339 23.5822 0.429801 23.7336 0.61218 23.839C0.794558 23.9443 1.00143 23.9998 1.21204 23.9999C1.42264 23.9999 1.62956 23.9446 1.81202 23.8395L8.41202 20.0332L15.012 23.8395ZM2.01202 21.4154L8.41202 17.7245L14.812 21.4154L14.812 3.60218C14.812 3.60194 14.812 3.60242 14.812 3.60218C14.8114 3.17766 14.6424 2.76998 14.3422 2.46978C14.0421 2.16962 13.6352 2.00069 13.2107 2H3.61333C3.18887 2.00069 2.78197 2.16962 2.4818 2.46978C2.18164 2.76994 2.01272 3.17684 2.01202 3.60131V21.4154ZM16.0112 22.1069C16.0108 22.1067 16.0116 22.1071 16.0112 22.1069Z" fill="white"/>
</svg>
